<?xml version="1.0" standalone="no"?>
<!DOCTYPE svg PUBLIC "-//W3C//DTD SVG 20010904//EN"
 "http://www.w3.org/TR/2001/REC-SVG-20010904/DTD/svg10.dtd">
<svg version="1.0" xmlns="http://www.w3.org/2000/svg"
 width="300.000000pt" height="321.000000pt" viewBox="0 0 300.000000 321.000000"
 preserveAspectRatio="xMidYMid meet">
<g transform="translate(0.000000,321.000000) scale(0.100000,-0.100000)"
fill="#000000" stroke="none">
<path d="M1300 2999 c-302 -42 -601 -208 -810 -449 -27 -31 -50 -63 -52 -71
-2 -8 -10 -19 -19 -26 -9 -7 -24 -27 -33 -45 -9 -18 -21 -40 -26 -48 -41 -63
-110 -255 -136 -375 -16 -71 -22 -335 -10 -385 3 -14 11 -52 17 -85 16 -88 36
-146 100 -282 16 -35 29 -66 29 -69 0 -10 58 -100 99 -154 75 -100 141 -167
236 -243 55 -43 114 -89 130 -103 17 -13 34 -24 39 -24 5 0 56 -29 115 -64 58
-35 144 -85 191 -112 46 -27 94 -54 105 -61 11 -7 31 -18 45 -25 14 -7 52 -33
85 -59 111 -85 139 -87 45 -3 -43 38 -253 168 -405 250 -250 134 -474 323
-587 494 -296 449 -303 940 -20 1375 102 156 315 334 516 430 180 86 327 117
546 116 475 -1 889 -240 1123 -646 95 -164 137 -327 137 -535 0 -264 -71 -492
-225 -725 -150 -227 -333 -377 -685 -565 -187 -100 -226 -126 -278 -185 -32
-37 -59 -85 -48 -85 2 0 37 33 78 73 42 41 93 82 114 92 22 10 57 29 79 43 22
14 76 44 120 66 44 23 92 50 107 60 15 10 33 19 40 20 15 2 130 81 164 112 12
12 27 24 33 25 27 10 231 224 255 267 5 10 12 19 16 22 13 9 91 142 130 220
43 87 83 207 100 300 6 36 15 79 19 96 9 34 6 324 -3 364 -3 14 -8 39 -11 55
-21 108 -110 303 -178 390 -4 6 -27 35 -50 65 -85 110 -252 258 -357 316 -19
10 -37 21 -40 25 -5 5 -32 18 -112 53 -212 94 -483 129 -728 95z"/>
<path d="M1332 2756 c-246 -47 -438 -148 -591 -313 -45 -47 -81 -89 -81 -93 0
-4 15 -13 33 -20 17 -8 54 -29 80 -48 26 -19 50 -33 52 -30 2 2 -18 28 -45 57
-28 30 -50 58 -50 63 0 12 85 97 152 150 60 50 204 136 233 141 11 2 29 8 40
14 11 6 38 14 60 18 22 4 47 11 56 16 9 5 44 9 78 10 33 1 61 6 61 10 0 5 11
9 25 9 19 0 23 -4 19 -17 -5 -17 -5 -17 6 0 8 12 24 17 53 17 31 0 38 -3 27
-10 -12 -8 -9 -10 13 -10 15 0 27 5 27 11 0 6 5 7 13 2 6 -4 20 -8 30 -9 36
-3 38 -4 31 -16 -6 -10 -5 -10 7 -1 11 9 27 8 69 -4 30 -8 69 -17 85 -20 34
-6 40 -10 40 -26 0 -7 11 -11 28 -9 15 2 27 -1 27 -8 0 -6 4 -9 9 -5 14 8 61
-16 61 -32 0 -7 3 -12 8 -11 14 4 110 -51 115 -67 4 -8 12 -15 19 -15 8 0 20
-8 29 -17 8 -10 32 -32 52 -49 20 -17 37 -35 37 -39 0 -5 8 -17 17 -28 17 -18
17 -19 -2 -33 -10 -8 -24 -14 -30 -14 -7 0 -17 -11 -23 -24 -6 -14 -38 -43
-71 -66 -34 -22 -61 -43 -61 -45 0 -13 27 1 130 70 62 41 117 76 123 78 15 5
-50 92 -110 148 -123 115 -284 202 -451 246 -121 31 -319 40 -430 19z"/>
<path d="M1370 2434 c-91 -19 -232 -92 -316 -162 -63 -54 -111 -109 -102 -117
2 -1 64 -42 138 -90 74 -48 178 -115 230 -149 154 -100 168 -108 189 -101 18
6 366 233 494 323 l59 41 -79 79 c-62 63 -96 88 -163 120 -140 68 -302 88
-450 56z m302 -36 c29 -7 68 -20 86 -30 18 -10 37 -18 43 -18 31 0 200 -135
199 -160 -1 -19 -54 -60 -225 -175 -49 -33 -94 -63 -100 -68 -46 -35 -147 -95
-167 -100 -18 -5 -38 2 -74 25 -82 53 -266 172 -324 211 -30 20 -68 47 -85 61
l-30 26 50 47 c86 80 187 137 320 181 42 15 243 14 307 0z"/>
<path d="M2429 2199 c-244 -217 -516 -435 -678 -544 l-44 -30 77 -3 c90 -3 93
-2 201 92 185 162 265 241 434 431 24 28 67 74 95 102 87 91 45 67 -85 -48z
m-267 -288 c-4 -10 -23 -31 -42 -47 -19 -16 -39 -34 -43 -41 -4 -7 -13 -13
-20 -13 -7 0 -45 -32 -86 -71 -70 -67 -104 -89 -137 -89 -21 0 2 33 38 55 16
9 44 30 61 45 59 53 155 120 171 120 9 0 16 5 16 10 0 11 31 48 42 49 4 1 4
-7 0 -18z"/>
<path d="M2540 2152 c-160 -395 -285 -620 -452 -815 -62 -73 -89 -116 -149
-240 -41 -84 -101 -207 -135 -274 -34 -68 -60 -123 -57 -123 15 0 270 179 333
233 208 181 346 408 410 677 18 77 23 128 25 270 2 170 3 177 32 245 36 85 67
175 61 180 -2 3 -33 -66 -68 -153z m-53 -355 c-4 -62 -13 -134 -21 -160 -8
-26 -12 -47 -10 -47 19 0 -136 -353 -167 -380 -3 -3 -21 -27 -39 -55 -47 -69
-242 -261 -322 -317 -63 -44 -108 -66 -108 -54 0 3 55 115 123 248 89 178 134
255 166 288 58 60 126 152 181 245 25 42 61 102 80 133 20 31 53 92 75 135 21
42 41 77 44 77 2 0 1 -51 -2 -113z"/>
<path d="M490 2284 c0 -17 93 -133 102 -127 7 3 8 1 4 -6 -17 -27 236 -290
424 -442 144 -116 248 -182 423 -270 120 -60 163 -77 176 -69 14 8 14 9 0 10
-8 0 -53 28 -100 62 -233 170 -283 208 -389 292 -166 131 -356 296 -502 435
-118 113 -138 130 -138 115z m335 -336 c161 -133 229 -189 269 -218 26 -19 69
-54 94 -77 26 -24 51 -43 56 -43 4 0 18 -9 30 -20 11 -11 37 -33 56 -51 l35
-31 -50 28 c-27 15 -61 33 -74 40 -13 7 -27 17 -30 21 -3 5 -24 20 -46 33 -22
13 -42 26 -45 30 -3 3 -21 17 -40 32 -19 14 -49 39 -66 55 -17 15 -54 48 -83
72 -90 76 -161 146 -161 160 0 14 1 13 55 -31z"/>
<path d="M421 2254 c-1 -5 13 -50 30 -100 30 -85 32 -98 39 -309 6 -170 13
-237 28 -295 21 -80 69 -205 104 -273 85 -168 265 -354 428 -444 19 -11 60
-32 90 -48 30 -16 65 -38 77 -49 13 -11 26 -17 29 -13 3 3 -26 70 -64 149 -38
79 -94 195 -123 258 -49 105 -63 125 -159 226 -59 63 -129 150 -159 199 -53
84 -204 411 -270 585 -44 115 -50 127 -50 114z m130 -396 c7 -18 32 -73 56
-123 86 -179 146 -267 278 -404 56 -58 106 -117 110 -131 4 -14 16 -40 26 -59
10 -19 16 -38 13 -43 -3 -4 -2 -8 3 -8 4 0 16 -17 25 -38 9 -20 40 -84 68
-142 27 -59 50 -109 50 -113 0 -3 -8 -4 -17 0 -30 10 -186 106 -218 133 -195
167 -306 325 -370 530 -40 126 -53 192 -56 270 -4 161 4 196 32 128z"/>
</g>
</svg>
